%TF.GenerationSoftware,KiCad,Pcbnew,9.0.7*%
%TF.CreationDate,2026-01-18T08:27:46-05:00*%
%TF.ProjectId,Hackpad,4861636b-7061-4642-9e6b-696361645f70,rev?*%
%TF.SameCoordinates,Original*%
%TF.FileFunction,Soldermask,Bot*%
%TF.FilePolarity,Negative*%
%FSLAX46Y46*%
G04 Gerber Fmt 4.6, Leading zero omitted, Abs format (unit mm)*
G04 Created by KiCad (PCBNEW 9.0.7) date 2026-01-18 08:27:46*
%MOMM*%
%LPD*%
G01*
G04 APERTURE LIST*
%ADD10C,1.700000*%
%ADD11C,4.000000*%
%ADD12C,2.200000*%
%ADD13C,1.524000*%
G04 APERTURE END LIST*
D10*
%TO.C,SW1*%
X149701250Y-119062500D03*
D11*
X154781250Y-119062500D03*
D10*
X159861250Y-119062500D03*
D12*
X157321250Y-113982500D03*
X150971250Y-116522500D03*
%TD*%
D10*
%TO.C,SW8*%
X140176250Y-80962500D03*
D11*
X145256250Y-80962500D03*
D10*
X150336250Y-80962500D03*
D12*
X147796250Y-75882500D03*
X141446250Y-78422500D03*
%TD*%
D10*
%TO.C,SW3*%
X159226250Y-100012500D03*
D11*
X164306250Y-100012500D03*
D10*
X169386250Y-100012500D03*
D12*
X166846250Y-94932500D03*
X160496250Y-97472500D03*
%TD*%
D10*
%TO.C,SW5*%
X130651250Y-119062500D03*
D11*
X135731250Y-119062500D03*
D10*
X140811250Y-119062500D03*
D12*
X138271250Y-113982500D03*
X131921250Y-116522500D03*
%TD*%
D10*
%TO.C,SW2*%
X140176250Y-100012500D03*
D11*
X145256250Y-100012500D03*
D10*
X150336250Y-100012500D03*
D12*
X147796250Y-94932500D03*
X141446250Y-97472500D03*
%TD*%
D10*
%TO.C,SW7*%
X121126250Y-80962500D03*
D11*
X126206250Y-80962500D03*
D10*
X131286250Y-80962500D03*
D12*
X128746250Y-75882500D03*
X122396250Y-78422500D03*
%TD*%
D13*
%TO.C,U1*%
X120491250Y-51435000D03*
X120491250Y-53975000D03*
X120491250Y-56515000D03*
X120491250Y-59055000D03*
X120491250Y-61595000D03*
X120491250Y-64135000D03*
X120491250Y-66675000D03*
X135731250Y-66675000D03*
X135731250Y-64135000D03*
X135731250Y-61595000D03*
X135731250Y-59055000D03*
X135731250Y-56515000D03*
X135731250Y-53975000D03*
X135731250Y-51435000D03*
%TD*%
D10*
%TO.C,SW4*%
X159226250Y-80962500D03*
D11*
X164306250Y-80962500D03*
D10*
X169386250Y-80962500D03*
D12*
X166846250Y-75882500D03*
X160496250Y-78422500D03*
%TD*%
D10*
%TO.C,SW6*%
X121126250Y-100012500D03*
D11*
X126206250Y-100012500D03*
D10*
X131286250Y-100012500D03*
D12*
X128746250Y-94932500D03*
X122396250Y-97472500D03*
%TD*%
M02*
